<svg width="193" height="56" viewBox="0 0 193 56" fill="none" xmlns="http://www.w3.org/2000/svg">
<g filter="url(#filter0_dd_1_50)">
<g clip-path="url(#clip0_1_50)">
<path d="M50.2085 26.7866L49.8228 31.7022H37.6494V31.1898L47.8357 14.6018H42.4892C40.6277 14.6018 39.466 14.7741 39.0533 16.8057L38.6676 18.615H38.1338V13.8944H49.8945V14.4068L39.6813 30.9948H43.5298C47.4724 30.9948 48.4188 30.7726 49.0468 28.8181L49.6748 26.7866H50.2085Z" fill="#DDD7D1"/>
<path d="M70.4645 31.2669V31.7068H64.5124V31.2669C66.5443 31.1444 66.957 30.7273 66.4501 29.385L65.1449 25.9114H57.6677L56.506 29.0177C55.9005 30.5821 56.7258 31.1444 58.7577 31.2669V31.7068H53.1195V31.2669C54.5952 31.1444 54.9361 30.5323 55.3936 29.3351L61.2246 13.8944H62.3864L68.2443 29.3804C68.7018 30.5776 69.0203 31.1399 70.469 31.2624L70.4645 31.2669ZM64.8757 25.1722L61.3906 15.8987L57.9279 25.1722H64.8757Z" fill="#DDD7D1"/>
<path d="M94.6901 31.2669V31.7068H88.4689V31.2669C90.2855 31.1671 90.8148 30.8996 90.7699 29.4077L90.3124 15.6312L83.997 30.4824H83.2972L76.762 15.8035L76.3 29.4077C76.2507 30.8996 76.8069 31.1671 78.601 31.2669V31.7068H73.084V31.2669C74.8737 31.1671 75.3357 30.8996 75.385 29.4077L75.8425 16.1935C75.8919 14.7016 75.3581 14.434 73.5684 14.3342V13.8944H77.7085L84.0508 28.1107L89.5185 15.2639C89.7114 14.7968 89.9042 14.1891 89.9536 13.8944H94.2371V14.3342C92.4205 14.434 91.8913 14.7016 91.9361 16.1935L92.3981 29.4077C92.4475 30.8996 92.905 31.1671 94.6991 31.2669H94.6901Z" fill="#DDD7D1"/>
<path d="M112.717 26.7866L112.354 31.7022H98.7763V31.2624C100.544 31.1626 101.05 30.9676 101.05 29.4757V16.1164C101.05 14.6245 100.544 14.4295 98.7763 14.3297V13.8898H112.161V18.1706H111.654L111.268 16.7739C110.734 14.7696 109.694 14.5973 107.832 14.5973H102.701V22.1566H106.402C108.07 22.1566 108.747 22.0115 109.066 20.5196L109.236 19.7623H109.743V25.2901H109.236L109.066 24.5328C108.752 23.0409 108.075 22.8913 106.402 22.8913H102.701V30.7681C103.522 30.9404 104.325 30.9903 106.065 30.9903C110.008 30.9903 110.954 30.7681 111.56 28.8136L112.215 26.7821H112.721L112.717 26.7866Z" fill="#DDD7D1"/>
<path d="M117.507 22.9457C117.507 17.3408 120.822 13.5996 125.904 13.5996C129.026 13.5996 131.129 15.019 131.905 15.5586V18.8599H131.372C130.986 15.9486 128.586 14.307 125.734 14.307C121.742 14.307 119.346 17.5358 119.346 22.5285C119.346 27.7661 122.011 30.8225 125.976 30.8225C127.985 30.8225 130.331 30.038 131.834 27.689L132.367 28.0064C130.793 30.6502 128.349 31.9924 125.446 31.9924C120.679 31.9924 117.507 28.4463 117.507 22.9411V22.9457Z" fill="#DDD7D1"/>
<path d="M149.327 26.7866L148.941 31.7022H136.768V31.1898L146.958 14.6018H141.612C139.75 14.6018 138.589 14.7741 138.176 16.8057L137.79 18.615H137.257V13.8944H149.017V14.4068L138.804 30.9948H142.652C146.595 30.9948 147.542 30.7726 148.169 28.8181L148.797 26.7866H149.331H149.327Z" fill="#DDD7D1"/>
<path d="M167.479 26.7866L167.116 31.7022H153.539V31.2624C155.306 31.1626 155.813 30.9676 155.813 29.4757V16.1164C155.813 14.6245 155.306 14.4295 153.539 14.3297V13.8898H166.923V18.1706H166.416L166.03 16.7739C165.497 14.7696 164.456 14.5973 162.595 14.5973H157.463V22.1566H161.164C162.832 22.1566 163.51 22.0115 163.828 20.5196L163.998 19.7623H164.505V25.2901H163.998L163.828 24.5328C163.514 23.0409 162.837 22.8913 161.164 22.8913H157.463V30.7681C158.284 30.9404 159.087 30.9903 160.827 30.9903C164.77 30.9903 165.716 30.7681 166.322 28.8136L166.977 26.7821H167.484L167.479 26.7866Z" fill="#DDD7D1"/>
<path d="M178.293 31.2669V31.7068H172.099V31.2669C173.866 31.1671 174.373 30.9721 174.373 29.4802V16.1209C174.373 14.629 173.866 14.434 172.099 14.3342V13.8944H178.293V14.3342C176.526 14.434 176.019 14.629 176.019 16.1209V29.4802C176.019 30.9721 176.526 31.1671 178.293 31.2669ZM188.892 31.2669V31.7068C188.457 31.8065 187.995 31.8519 187.466 31.8519C186.524 31.8519 185.483 31.6297 183.304 29.3079L177.159 22.5784L182.868 16.4384C183.425 15.8262 183.86 15.3863 183.86 14.9464C183.86 14.629 183.618 14.434 182.456 14.3342V13.8944H187.973V14.3342C186.762 14.5066 185.044 15.4362 183.496 17.0007L178.778 21.8709L184.851 28.4055C186.497 30.165 187.901 31.2669 188.892 31.2669Z" fill="#DDD7D1"/>
<path d="M61.0138 45.8188V46.0047C60.821 46.0455 60.5967 46.0682 60.4083 46.0682C59.87 46.0682 59.4978 45.905 59.0896 45.2474L57.5915 42.912C57.4704 42.7261 57.3403 42.6672 57.0129 42.6672H56.1113V45.0751C56.1113 45.7009 56.3221 45.7825 57.0129 45.8233V46.0093H54.4696V45.8233C55.2097 45.7825 55.4205 45.7009 55.4205 45.0751V39.4838C55.4205 38.858 55.2097 38.7764 54.4696 38.7356V38.5497H57.0443C58.825 38.5497 59.8387 39.1346 59.8387 40.3817C59.8387 41.529 59.0672 42.2137 58.1252 42.5221L59.7759 44.989C60.1616 45.583 60.5159 45.8188 61.0138 45.8188ZM59.0896 40.5359C59.0896 39.4385 58.3316 38.8444 56.9007 38.8444H56.1113V42.2953C56.3625 42.3452 56.9007 42.3679 57.1026 42.3679C58.4392 42.3679 59.0896 41.5879 59.0896 40.5359Z" fill="#DDD7D1"/>
<path d="M68.186 43.946L68.0335 46.0047H62.3505V45.8188C63.0906 45.778 63.3014 45.6964 63.3014 45.0706V39.4793C63.3014 38.8535 63.0906 38.7719 62.3505 38.731V38.5451H67.9527V40.3363H67.7419L67.5804 39.7514C67.3562 38.9124 66.9211 38.8399 66.1406 38.8399H63.9921V42.0051H65.5441C66.2438 42.0051 66.5264 41.9416 66.6564 41.3204L66.7282 41.0029H66.939V43.3156H66.7282L66.6564 42.9982C66.5264 42.3724 66.2393 42.3135 65.5441 42.3135H63.9921V45.6102C64.3375 45.6828 64.6694 45.7009 65.4005 45.7009C67.0512 45.7009 67.4459 45.6102 67.7015 44.7894L67.9751 43.9414H68.186V43.946Z" fill="#DDD7D1"/>
<path d="M70.3345 45.4334V43.9686H70.5453C70.6484 45.125 71.384 45.8324 72.5323 45.8324C73.6806 45.8324 74.4162 45.2202 74.4162 44.2453C74.4162 43.497 73.9497 43.0798 72.8642 42.6354L72.3394 42.4223C71.4693 42.0731 70.4645 41.6015 70.4645 40.3454C70.4645 39.1981 71.3033 38.4317 72.5189 38.4317C73.6043 38.4317 74.2323 38.8217 74.6135 39.0666V40.427H74.3893C74.2771 39.3296 73.5191 38.7265 72.4964 38.7265C71.6263 38.7265 71.0701 39.2888 71.0701 40.1413C71.0701 40.8896 71.5366 41.2796 72.6086 41.7194L73.1468 41.9326C74.4521 42.4631 75.0217 43.0163 75.0217 44.0503C75.0217 45.32 73.9901 46.1272 72.5099 46.1272C71.3437 46.1272 70.626 45.6646 70.33 45.4288L70.3345 45.4334Z" fill="#DDD7D1"/>
<path d="M82.4226 38.5497V40.5268H82.2118L82.0503 39.7604C81.8799 38.9215 81.382 38.8489 80.6239 38.8489H79.8435V45.0751C79.8435 45.7009 80.0543 45.7825 80.7944 45.8233V46.0093H78.2018V45.8233C78.9419 45.7825 79.1438 45.7009 79.1438 45.0751V38.8489H78.3723C77.6008 38.8489 77.1164 38.9215 76.9459 39.7604L76.7845 40.5268H76.5602V38.5497H82.4271H82.4226Z" fill="#DDD7D1"/>
<path d="M90.1016 45.8188V46.0047H87.6077V45.8188C88.4599 45.7689 88.6304 45.5921 88.4196 45.0298L87.8724 43.5741H84.7416L84.2571 44.8756C84.0059 45.5331 84.3468 45.7644 85.1991 45.8188V46.0047H82.8398V45.8188C83.4587 45.7689 83.5978 45.5104 83.7907 45.0116L86.2307 38.5497H86.7151L89.1686 45.0298C89.3615 45.5331 89.4916 45.7689 90.1016 45.8188ZM87.7602 43.2703L86.3025 39.3886L84.8537 43.2703H87.7602Z" fill="#DDD7D1"/>
<path d="M91.8733 43.5696V39.4838C91.8733 38.858 91.6715 38.7764 90.9314 38.7356V38.5497H93.524V38.7356C92.7839 38.7764 92.5731 38.858 92.5731 39.4838V43.497C92.5731 45.0116 93.2324 45.7508 94.6274 45.7508C95.9147 45.7508 96.7041 45.066 96.7041 43.5378V39.6244C96.7041 38.9895 96.4709 38.7764 95.7218 38.7356V38.5497H98.0004V38.7356C97.3007 38.7764 97.0988 38.9895 97.0988 39.6244V43.5061C97.0988 45.2474 96.1658 46.1272 94.5063 46.1272C92.7525 46.1272 91.8733 45.2882 91.8733 43.5651V43.5696Z" fill="#DDD7D1"/>
<path d="M106.016 45.8188V46.0047C105.823 46.0455 105.599 46.0682 105.406 46.0682C104.868 46.0682 104.495 45.905 104.087 45.2474L102.589 42.912C102.468 42.7261 102.338 42.6672 102.01 42.6672H101.109V45.0751C101.109 45.7009 101.32 45.7825 102.01 45.8233V46.0093H99.4671V45.8233C100.207 45.7825 100.418 45.7009 100.418 45.0751V39.4838C100.418 38.858 100.207 38.7764 99.4671 38.7356V38.5497H102.042C103.822 38.5497 104.836 39.1346 104.836 40.3817C104.836 41.529 104.065 42.2137 103.123 42.5221L104.773 44.989C105.159 45.583 105.513 45.8188 106.011 45.8188H106.016ZM104.092 40.5359C104.092 39.4385 103.334 38.8444 101.903 38.8444H101.113V42.2953C101.364 42.3452 101.903 42.3679 102.105 42.3679C103.441 42.3679 104.092 41.5879 104.092 40.5359Z" fill="#DDD7D1"/>
<path d="M113.95 45.8188V46.0047H111.457V45.8188C112.309 45.7689 112.479 45.5921 112.268 45.0298L111.721 43.5741H108.59L108.106 44.8756C107.855 45.5331 108.196 45.7644 109.048 45.8188V46.0047H106.689V45.8188C107.308 45.7689 107.447 45.5104 107.639 45.0116L110.08 38.5497H110.564L113.017 45.0298C113.21 45.5331 113.34 45.7689 113.95 45.8188ZM111.609 43.2703L110.151 39.3886L108.703 43.2703H111.609Z" fill="#DDD7D1"/>
<path d="M115.215 42.3407C115.215 39.9962 116.601 38.4272 118.732 38.4272C120.037 38.4272 120.921 39.0213 121.244 39.248V40.6311H121.019C120.858 39.4112 119.853 38.7265 118.66 38.7265C116.987 38.7265 115.987 40.0779 115.987 42.1684C115.987 44.3586 117.099 45.642 118.763 45.642C119.607 45.642 120.589 45.3155 121.217 44.3314L121.441 44.4629C120.782 45.5694 119.759 46.1317 118.543 46.1317C116.547 46.1317 115.22 44.6489 115.22 42.3407H115.215Z" fill="#DDD7D1"/>
<path d="M122.248 47.6418C122.248 47.5284 122.298 47.3969 122.361 47.3243L122.643 47.415C122.814 47.4649 122.98 47.4785 123.11 47.4785C123.666 47.4785 124.114 47.2019 124.114 45.6057V39.4838C124.114 38.858 123.904 38.7764 123.163 38.7356V38.5497H125.657V38.7356C125.007 38.7764 124.805 38.858 124.805 39.4838V45.1567C124.805 47.0704 123.702 48.0045 122.832 48.0045C122.347 48.0045 122.253 47.7914 122.253 47.6463L122.248 47.6418Z" fill="#DDD7D1"/>
<path d="M133.987 45.8188V46.0047H131.493V45.8188C132.345 45.7689 132.515 45.5921 132.305 45.0298L131.757 43.5741H128.627L128.142 44.8756C127.891 45.5331 128.232 45.7644 129.084 45.8188V46.0047H126.725V45.8188C127.344 45.7689 127.483 45.5104 127.676 45.0116L130.116 38.5497H130.6L133.054 45.0298C133.247 45.5331 133.377 45.7689 133.987 45.8188ZM131.65 43.2703L130.192 39.3886L128.743 43.2703H131.65Z" fill="#DDD7D1"/>
<path d="M145.81 45.8324V46.0047C145.626 46.0455 145.447 46.0682 145.303 46.0682C144.837 46.0682 144.424 45.8415 143.895 45.2701L143.814 45.1885C143.209 45.7735 142.406 46.1317 141.536 46.1317C140.159 46.1317 139.073 45.2202 139.073 43.9913C139.073 43.0889 139.62 42.2817 140.661 41.7466C140.217 41.1435 140.002 40.6492 140.002 40.1368C140.002 39.316 140.679 38.4272 141.868 38.4272C142.679 38.4272 143.245 38.8671 143.541 39.112V40.2184H143.316C143.213 39.3704 142.666 38.7038 141.818 38.7038C140.97 38.7038 140.603 39.4022 140.603 39.9645C140.603 40.6719 141.109 41.3793 141.706 42.0006L144.007 44.4176C144.272 43.9777 144.433 43.4653 144.433 42.903C144.433 42.2681 144.231 42.2182 143.644 42.1638V41.9779H144.98V42.3996C144.98 43.2476 144.707 44.0503 144.249 44.6715L144.474 44.9073C145.11 45.5921 145.433 45.8279 145.81 45.8279V45.8324ZM143.594 44.9391L141.334 42.5311C141.141 42.318 140.97 42.123 140.818 41.9371C140.087 42.4404 139.773 43.1161 139.773 43.7918C139.773 44.9164 140.692 45.719 141.728 45.719C142.428 45.719 143.097 45.4243 143.594 44.9391Z" fill="#DDD7D1"/>
<path d="M157.351 39.4793V45.0706C157.351 45.6964 157.562 45.778 158.302 45.8188V46.0047H155.709V45.8188C156.45 45.778 156.651 45.6964 156.651 45.0706V42.318H152.65V45.0706C152.65 45.6964 152.861 45.778 153.601 45.8188V46.0047H151.009V45.8188C151.749 45.778 151.96 45.6964 151.96 45.0706V39.4793C151.96 38.8535 151.749 38.7719 151.009 38.731V38.5451H153.601V38.731C152.861 38.7719 152.65 38.8535 152.65 39.4793V42.0096H156.651V39.4793C156.651 38.8535 156.45 38.7719 155.709 38.731V38.5451H158.302V38.731C157.562 38.7719 157.351 38.8535 157.351 39.4793Z" fill="#DDD7D1"/>
<path d="M160.217 42.318C160.217 39.9917 161.626 38.4272 163.743 38.4272C165.86 38.4272 167.205 39.8693 167.205 42.2364C167.205 44.6035 165.797 46.1272 163.68 46.1272C161.563 46.1272 160.217 44.6851 160.217 42.318ZM166.416 42.318C166.416 40.1277 165.331 38.722 163.662 38.722C161.993 38.722 161.007 40.0642 161.007 42.2364C161.007 44.4085 162.079 45.8324 163.752 45.8324C165.425 45.8324 166.416 44.4901 166.416 42.318Z" fill="#DDD7D1"/>
<path d="M174.553 38.5497V40.5268H174.342L174.18 39.7604C174.01 38.9215 173.512 38.8489 172.754 38.8489H171.973V45.0751C171.973 45.7009 172.184 45.7825 172.924 45.8233V46.0093H170.332V45.8233C171.072 45.7825 171.274 45.7009 171.274 45.0751V38.8489H170.502C169.731 38.8489 169.246 38.9215 169.076 39.7604L168.914 40.5268H168.69V38.5497H174.557H174.553Z" fill="#DDD7D1"/>
<path d="M181.998 43.946L181.846 46.0047H176.163V45.8188C176.903 45.778 177.114 45.6964 177.114 45.0706V39.4793C177.114 38.8535 176.903 38.7719 176.163 38.731V38.5451H181.765V40.3363H181.554L181.393 39.7514C181.169 38.9124 180.733 38.8399 179.953 38.8399H177.804V42.0051H179.356C180.056 42.0051 180.339 41.9416 180.469 41.3204L180.541 41.0029H180.751V43.3156H180.541L180.469 42.9982C180.339 42.3724 180.052 42.3135 179.356 42.3135H177.804V45.6102C178.15 45.6828 178.482 45.7009 179.213 45.7009C180.864 45.7009 181.258 45.6102 181.514 44.7894L181.787 43.9414H181.998V43.946Z" fill="#DDD7D1"/>
<path d="M189 43.946L188.847 46.0047H183.936V45.8188C184.676 45.778 184.887 45.6964 184.887 45.0706V39.4793C184.887 38.8535 184.676 38.7719 183.936 38.731V38.5451H186.529V38.731C185.788 38.7719 185.578 38.8535 185.578 39.4793V45.642C185.842 45.6828 186.044 45.7054 186.215 45.7054C187.856 45.7054 188.26 45.6147 188.516 44.794L188.78 43.946H189.004H189Z" fill="#DDD7D1"/>
<path d="M49.899 46.4038H4V0H49.899V8.45272H49.0019V0.906944H4.89708V45.4968H49.0019V37.9511H49.899V46.4038Z" fill="#DDD7D1"/>
<path d="M21.6411 21.286L13.7333 26.0656V32.0333H19.6406L19.5867 27.104H21.6411H23.6954L23.646 32.0333H29.5533V26.0656L21.6411 21.286Z" fill="#DDD7D1"/>
<path d="M26.9338 14.366V17.0143H23.9017V14.366H21.6411H19.3849V17.0143H16.3528V14.366H12.1948V18.6785L13.7333 20.1296V24.1791L21.6411 19.454L29.5533 24.1791V20.1296L31.0918 18.6785V14.366H26.9338Z" fill="#DDD7D1"/>
</g>
<rect x="4.5" y="0.5" width="184" height="47" stroke="black" shape-rendering="crispEdges"/>
<rect x="4.5" y="0.5" width="184" height="47" stroke="black" stroke-opacity="0.2" shape-rendering="crispEdges"/>
</g>
<defs>
<filter id="filter0_dd_1_50" x="0" y="0" width="193" height="56" filterUnits="userSpaceOnUse" color-interpolation-filters="sRGB">
<feFlood flood-opacity="0" result="BackgroundImageFix"/>
<feColorMatrix in="SourceAlpha" type="matrix" values="0 0 0 0 0 0 0 0 0 0 0 0 0 0 0 0 0 0 127 0" result="hardAlpha"/>
<feOffset dy="4"/>
<feGaussianBlur stdDeviation="2"/>
<feComposite in2="hardAlpha" operator="out"/>
<feColorMatrix type="matrix" values="0 0 0 0 0 0 0 0 0 0 0 0 0 0 0 0 0 0 0.25 0"/>
<feBlend mode="normal" in2="BackgroundImageFix" result="effect1_dropShadow_1_50"/>
<feColorMatrix in="SourceAlpha" type="matrix" values="0 0 0 0 0 0 0 0 0 0 0 0 0 0 0 0 0 0 127 0" result="hardAlpha"/>
<feOffset dy="4"/>
<feGaussianBlur stdDeviation="2"/>
<feComposite in2="hardAlpha" operator="out"/>
<feColorMatrix type="matrix" values="0 0 0 0 0 0 0 0 0 0 0 0 0 0 0 0 0 0 0.25 0"/>
<feBlend mode="normal" in2="effect1_dropShadow_1_50" result="effect2_dropShadow_1_50"/>
<feBlend mode="normal" in="SourceGraphic" in2="effect2_dropShadow_1_50" result="shape"/>
</filter>
<clipPath id="clip0_1_50">
<rect x="4" width="185" height="48" fill="white"/>
</clipPath>
</defs>
</svg>
